<mxfile host="app.diagrams.net" modified="2023-09-18T07:39:43.057Z" agent="Mozilla/5.0 (Windows NT 10.0; Win64; x64) AppleWebKit/537.36 (KHTML, like Gecko) Chrome/116.0.0.0 Safari/537.36" etag="lRKKV30RQ3HePfdhssFx" version="21.7.5" type="device">
  <diagram id="C5RBs43oDa-KdzZeNtuy" name="Page-1">
    <mxGraphModel dx="1247" dy="659" grid="0" gridSize="10" guides="1" tooltips="1" connect="1" arrows="1" fold="1" page="1" pageScale="1" pageWidth="827" pageHeight="1169" math="0" shadow="0">
      <root>
        <mxCell id="WIyWlLk6GJQsqaUBKTNV-0" />
        <mxCell id="WIyWlLk6GJQsqaUBKTNV-1" parent="WIyWlLk6GJQsqaUBKTNV-0" />
        <mxCell id="WIyWlLk6GJQsqaUBKTNV-3" value="Button" style="rounded=1;whiteSpace=wrap;html=1;fontSize=14;glass=0;strokeWidth=1;shadow=0;" parent="WIyWlLk6GJQsqaUBKTNV-1" vertex="1">
          <mxGeometry x="270" y="129" width="120" height="40" as="geometry" />
        </mxCell>
        <mxCell id="WIyWlLk6GJQsqaUBKTNV-11" value="Конец" style="rounded=1;whiteSpace=wrap;html=1;fontSize=12;glass=0;strokeWidth=1;shadow=0;" parent="WIyWlLk6GJQsqaUBKTNV-1" vertex="1">
          <mxGeometry x="268" y="688" width="120" height="40" as="geometry" />
        </mxCell>
        <mxCell id="YWLN9xPVWwnnbP-Pcery-0" value="" style="endArrow=none;html=1;rounded=0;exitX=0.5;exitY=1;exitDx=0;exitDy=0;entryX=0.5;entryY=0;entryDx=0;entryDy=0;" parent="WIyWlLk6GJQsqaUBKTNV-1" source="WIyWlLk6GJQsqaUBKTNV-3" target="m1hOHymZukcm-C7CSCfu-1" edge="1">
          <mxGeometry width="50" height="50" relative="1" as="geometry">
            <mxPoint x="496" y="404" as="sourcePoint" />
            <mxPoint x="328" y="179" as="targetPoint" />
          </mxGeometry>
        </mxCell>
        <mxCell id="m1hOHymZukcm-C7CSCfu-1" value="Ввод значения&lt;br&gt;x" style="shape=parallelogram;perimeter=parallelogramPerimeter;whiteSpace=wrap;html=1;fixedSize=1;" vertex="1" parent="WIyWlLk6GJQsqaUBKTNV-1">
          <mxGeometry x="270" y="209" width="120" height="60" as="geometry" />
        </mxCell>
        <mxCell id="m1hOHymZukcm-C7CSCfu-3" value="Ошибка функции&lt;br&gt;вычисления?" style="rhombus;whiteSpace=wrap;html=1;" vertex="1" parent="WIyWlLk6GJQsqaUBKTNV-1">
          <mxGeometry x="257" y="297" width="146" height="80" as="geometry" />
        </mxCell>
        <mxCell id="m1hOHymZukcm-C7CSCfu-4" value="" style="endArrow=none;html=1;rounded=0;entryX=0.5;entryY=1;entryDx=0;entryDy=0;exitX=0.5;exitY=0;exitDx=0;exitDy=0;" edge="1" parent="WIyWlLk6GJQsqaUBKTNV-1" source="m1hOHymZukcm-C7CSCfu-3" target="m1hOHymZukcm-C7CSCfu-1">
          <mxGeometry width="50" height="50" relative="1" as="geometry">
            <mxPoint x="329" y="296" as="sourcePoint" />
            <mxPoint x="546" y="354" as="targetPoint" />
          </mxGeometry>
        </mxCell>
        <mxCell id="m1hOHymZukcm-C7CSCfu-5" value="Вывод&lt;br&gt;сообщения&lt;br&gt;об ошибке" style="shape=parallelogram;perimeter=parallelogramPerimeter;whiteSpace=wrap;html=1;fixedSize=1;" vertex="1" parent="WIyWlLk6GJQsqaUBKTNV-1">
          <mxGeometry x="448" y="381" width="120" height="60" as="geometry" />
        </mxCell>
        <mxCell id="m1hOHymZukcm-C7CSCfu-6" value="" style="endArrow=none;html=1;rounded=0;exitX=1;exitY=0.5;exitDx=0;exitDy=0;" edge="1" parent="WIyWlLk6GJQsqaUBKTNV-1" source="m1hOHymZukcm-C7CSCfu-3">
          <mxGeometry width="50" height="50" relative="1" as="geometry">
            <mxPoint x="496" y="404" as="sourcePoint" />
            <mxPoint x="508" y="337" as="targetPoint" />
          </mxGeometry>
        </mxCell>
        <mxCell id="m1hOHymZukcm-C7CSCfu-7" value="" style="endArrow=none;html=1;rounded=0;exitX=0.5;exitY=0;exitDx=0;exitDy=0;" edge="1" parent="WIyWlLk6GJQsqaUBKTNV-1" source="m1hOHymZukcm-C7CSCfu-5">
          <mxGeometry width="50" height="50" relative="1" as="geometry">
            <mxPoint x="496" y="404" as="sourcePoint" />
            <mxPoint x="508" y="337" as="targetPoint" />
          </mxGeometry>
        </mxCell>
        <mxCell id="m1hOHymZukcm-C7CSCfu-8" value="Да" style="text;html=1;strokeColor=none;fillColor=none;align=center;verticalAlign=middle;whiteSpace=wrap;rounded=0;" vertex="1" parent="WIyWlLk6GJQsqaUBKTNV-1">
          <mxGeometry x="388" y="314" width="60" height="30" as="geometry" />
        </mxCell>
        <mxCell id="m1hOHymZukcm-C7CSCfu-9" value="" style="endArrow=none;html=1;rounded=0;entryX=0;entryY=0.5;entryDx=0;entryDy=0;" edge="1" parent="WIyWlLk6GJQsqaUBKTNV-1" target="m1hOHymZukcm-C7CSCfu-3">
          <mxGeometry width="50" height="50" relative="1" as="geometry">
            <mxPoint x="202" y="337" as="sourcePoint" />
            <mxPoint x="332" y="368" as="targetPoint" />
          </mxGeometry>
        </mxCell>
        <mxCell id="m1hOHymZukcm-C7CSCfu-10" value="Нет" style="text;html=1;strokeColor=none;fillColor=none;align=center;verticalAlign=middle;whiteSpace=wrap;rounded=0;" vertex="1" parent="WIyWlLk6GJQsqaUBKTNV-1">
          <mxGeometry x="212" y="314" width="60" height="30" as="geometry" />
        </mxCell>
        <mxCell id="m1hOHymZukcm-C7CSCfu-11" value="ans1 = func_for_zad1(x1)&lt;br&gt;func_for_zad1_out(x2, out ans2)&lt;br&gt;func_for_zad1_ref(x3, ref ans3)" style="rounded=0;whiteSpace=wrap;html=1;" vertex="1" parent="WIyWlLk6GJQsqaUBKTNV-1">
          <mxGeometry x="103" y="377" width="196" height="60" as="geometry" />
        </mxCell>
        <mxCell id="m1hOHymZukcm-C7CSCfu-12" value="" style="endArrow=none;html=1;rounded=0;entryX=0.5;entryY=0;entryDx=0;entryDy=0;" edge="1" parent="WIyWlLk6GJQsqaUBKTNV-1" target="m1hOHymZukcm-C7CSCfu-11">
          <mxGeometry width="50" height="50" relative="1" as="geometry">
            <mxPoint x="202" y="337" as="sourcePoint" />
            <mxPoint x="347" y="413" as="targetPoint" />
          </mxGeometry>
        </mxCell>
        <mxCell id="m1hOHymZukcm-C7CSCfu-13" value="Output(textBox4, ans1)&lt;br&gt;Output(textBox5, ans2)&lt;br&gt;Output(textBox6, ans3)" style="rounded=0;whiteSpace=wrap;html=1;" vertex="1" parent="WIyWlLk6GJQsqaUBKTNV-1">
          <mxGeometry x="130.5" y="462" width="141" height="60" as="geometry" />
        </mxCell>
        <mxCell id="m1hOHymZukcm-C7CSCfu-14" value="" style="endArrow=none;html=1;rounded=0;exitX=0.5;exitY=0;exitDx=0;exitDy=0;entryX=0.5;entryY=1;entryDx=0;entryDy=0;" edge="1" parent="WIyWlLk6GJQsqaUBKTNV-1" source="m1hOHymZukcm-C7CSCfu-13" target="m1hOHymZukcm-C7CSCfu-11">
          <mxGeometry width="50" height="50" relative="1" as="geometry">
            <mxPoint x="288" y="492" as="sourcePoint" />
            <mxPoint x="338" y="442" as="targetPoint" />
          </mxGeometry>
        </mxCell>
        <mxCell id="m1hOHymZukcm-C7CSCfu-15" value="Вывод&lt;br&gt;результата&lt;br&gt;в файл" style="shape=parallelogram;perimeter=parallelogramPerimeter;whiteSpace=wrap;html=1;fixedSize=1;" vertex="1" parent="WIyWlLk6GJQsqaUBKTNV-1">
          <mxGeometry x="141" y="554" width="120" height="60" as="geometry" />
        </mxCell>
        <mxCell id="m1hOHymZukcm-C7CSCfu-16" value="" style="endArrow=none;html=1;rounded=0;exitX=0.5;exitY=1;exitDx=0;exitDy=0;entryX=0.5;entryY=0;entryDx=0;entryDy=0;" edge="1" parent="WIyWlLk6GJQsqaUBKTNV-1" source="m1hOHymZukcm-C7CSCfu-13" target="m1hOHymZukcm-C7CSCfu-15">
          <mxGeometry width="50" height="50" relative="1" as="geometry">
            <mxPoint x="288" y="492" as="sourcePoint" />
            <mxPoint x="338" y="442" as="targetPoint" />
          </mxGeometry>
        </mxCell>
        <mxCell id="m1hOHymZukcm-C7CSCfu-17" value="" style="endArrow=none;html=1;rounded=0;exitX=0.5;exitY=1;exitDx=0;exitDy=0;" edge="1" parent="WIyWlLk6GJQsqaUBKTNV-1" source="m1hOHymZukcm-C7CSCfu-15">
          <mxGeometry width="50" height="50" relative="1" as="geometry">
            <mxPoint x="288" y="492" as="sourcePoint" />
            <mxPoint x="201" y="636" as="targetPoint" />
          </mxGeometry>
        </mxCell>
        <mxCell id="m1hOHymZukcm-C7CSCfu-18" value="" style="endArrow=none;html=1;rounded=0;" edge="1" parent="WIyWlLk6GJQsqaUBKTNV-1">
          <mxGeometry width="50" height="50" relative="1" as="geometry">
            <mxPoint x="201" y="636" as="sourcePoint" />
            <mxPoint x="509" y="636" as="targetPoint" />
          </mxGeometry>
        </mxCell>
        <mxCell id="m1hOHymZukcm-C7CSCfu-19" value="" style="endArrow=none;html=1;rounded=0;entryX=0.5;entryY=1;entryDx=0;entryDy=0;" edge="1" parent="WIyWlLk6GJQsqaUBKTNV-1" target="m1hOHymZukcm-C7CSCfu-5">
          <mxGeometry width="50" height="50" relative="1" as="geometry">
            <mxPoint x="509" y="636" as="sourcePoint" />
            <mxPoint x="338" y="442" as="targetPoint" />
          </mxGeometry>
        </mxCell>
        <mxCell id="m1hOHymZukcm-C7CSCfu-20" value="" style="endArrow=none;html=1;rounded=0;exitX=0.5;exitY=0;exitDx=0;exitDy=0;" edge="1" parent="WIyWlLk6GJQsqaUBKTNV-1" source="WIyWlLk6GJQsqaUBKTNV-11">
          <mxGeometry width="50" height="50" relative="1" as="geometry">
            <mxPoint x="196" y="681" as="sourcePoint" />
            <mxPoint x="328" y="636" as="targetPoint" />
          </mxGeometry>
        </mxCell>
      </root>
    </mxGraphModel>
  </diagram>
</mxfile>
